<svg width="150" height="150" viewBox="0 0 150 150" fill="none" xmlns="http://www.w3.org/2000/svg">
<g clip-path="url(#clip0_671_6349)">
<path d="M147.188 68.3368L81.6964 2.84574C79.8827 1.03832 77.4266 0.0234375 74.8661 0.0234375C72.3056 0.0234375 69.8494 1.03832 68.0357 2.84574L54.4085 16.4395L71.6518 33.6828C80.7255 30.6359 89.2969 39.3078 86.183 48.3145L102.824 64.9551C114.275 61.0042 123.315 75.3346 114.71 83.9395C105.837 92.8123 91.2054 82.9685 95.9598 71.4507L80.4241 55.9149V96.7297C88.8951 100.915 87.8906 110.759 83.471 115.145C82.404 116.216 81.136 117.066 79.7398 117.646C78.3436 118.226 76.8467 118.524 75.3348 118.524C73.823 118.524 72.326 118.226 70.9298 117.646C69.5336 117.066 68.2657 116.216 67.1987 115.145C61.3058 109.252 63.4822 99.4417 70.9822 96.3949V55.2118C64.0179 52.3658 62.7455 44.9328 64.7545 40.1449L47.7455 23.1024L2.84599 68.002C1.03856 69.8157 0.0236816 72.2718 0.0236816 74.8324C0.0236816 77.3929 1.03856 79.849 2.84599 81.6627L68.3371 147.154C70.1508 148.961 72.6069 149.976 75.1674 149.976C77.7279 149.976 80.1841 148.961 81.9978 147.154L147.188 81.964C148.995 80.1504 150.01 77.6942 150.01 75.1337C150.01 72.5732 148.995 70.117 147.188 68.3033V68.3368Z" fill="#ED3720"/>
</g>
<defs>
<clipPath id="clip0_671_6349">
<rect width="150" height="150" fill="white"/>
</clipPath>
</defs>
</svg>
