<svg width="150" height="120" viewBox="0 0 150 120" fill="none" xmlns="http://www.w3.org/2000/svg">
<g clip-path="url(#clip0_668_6341)">
<path d="M70.7346 88.8045C70.6643 88.9451 70.594 89.0623 70.7346 88.8045ZM129.117 68.4138C124.404 68.4127 119.753 69.4952 115.524 71.5779C114.141 68.7888 112.711 66.3513 112.477 64.5232C112.196 62.3904 111.891 61.1248 112.219 58.5935C112.547 56.0623 114.024 52.4764 114 52.2185C113.977 51.9607 113.672 50.6717 110.649 50.6482C107.625 50.6248 105.024 51.2342 104.719 52.031C104.185 53.4873 103.77 54.9844 103.477 56.5076C102.938 59.2498 97.4299 69.0467 94.3127 74.156C93.2815 72.1638 92.4143 70.406 92.2268 68.9998C91.9455 66.867 91.6409 65.6014 91.969 63.0701C92.2971 60.5389 93.7737 56.9529 93.7502 56.6951C93.7268 56.4373 93.4221 55.1482 90.3987 55.1248C87.3752 55.1013 84.7737 55.7107 84.469 56.5076C84.1643 57.3045 83.8362 59.1795 83.2268 60.9842C82.6174 62.7889 75.2815 79.1013 73.3596 83.3435C72.3752 85.4998 71.5315 87.2342 70.9221 88.406C70.8284 88.5935 70.758 88.7107 70.7112 88.8045C70.7815 88.6873 70.8284 88.5701 70.8284 88.617C70.3127 89.6248 70.008 90.1873 70.008 90.1873V90.2107C69.6096 90.9607 69.1643 91.6404 68.9534 91.6404C68.8127 91.6404 68.508 89.6717 69.0237 86.9763C70.1252 81.3045 72.7268 72.492 72.7034 72.1873C72.6799 72.0232 73.1955 70.4998 70.9924 69.6795C68.8596 68.906 68.0862 70.1951 67.8987 70.1951C67.7112 70.1951 67.5705 70.6638 67.5705 70.6638C67.5705 70.6638 69.9377 60.7264 63.0237 60.7264C58.7112 60.7264 52.7112 65.4607 49.758 69.7498C47.9065 70.7576 43.8987 72.9373 39.6799 75.2576C38.0627 76.1482 36.3987 77.0623 34.8284 77.9295C34.7112 77.8123 34.6174 77.6951 34.5002 77.5779C26.1096 68.6248 10.6174 62.2967 11.2737 50.2732C11.508 45.8904 13.0315 34.3826 41.0627 20.4138C64.0315 8.97635 82.4065 12.117 85.5471 19.1013C90.094 29.0623 75.7268 47.6014 51.8674 50.2732C42.7737 51.281 37.9924 47.7654 36.7971 46.4529C35.5549 45.0701 35.3674 44.9998 34.8987 45.2576C34.1252 45.6795 34.6174 46.8982 34.8987 47.6248C35.6018 49.4763 38.5315 52.7576 43.5237 54.3982C47.9065 55.8279 58.5705 56.6248 71.4612 51.6326C85.9455 46.0545 97.219 30.5154 93.9143 17.5076C90.5862 4.28885 68.6721 -0.047088 47.9534 7.31229C35.6018 11.6951 22.2424 18.5857 12.633 27.5623C1.21898 38.2498 -0.609143 47.5545 0.140857 51.4451C2.81273 65.2498 21.844 74.2498 29.4612 80.906C29.0862 81.117 28.7346 81.3045 28.4065 81.492C24.5862 83.3904 10.0784 90.9842 6.44554 98.9998C2.34398 108.094 7.12523 114.609 10.2659 115.5C20.0627 118.219 30.094 113.32 35.4846 105.281C40.8752 97.242 40.219 86.742 37.7346 81.9607C37.7112 81.8904 37.6643 81.8435 37.6409 81.7732C38.6252 81.1873 39.633 80.6013 40.6409 80.0154C42.5862 78.867 44.4846 77.8123 46.1487 76.8982C45.2112 79.4295 44.5315 82.4764 44.1799 86.8826C43.758 92.0388 45.8909 98.7185 48.6565 101.344C49.8752 102.492 51.3518 102.515 52.2659 102.515C55.5002 102.515 56.9534 99.8435 58.5705 96.656C60.5627 92.7654 62.3205 88.242 62.3205 88.242C62.3205 88.242 60.1174 100.476 66.1409 100.476C68.344 100.476 70.5471 97.6404 71.5315 96.1873V96.2107C71.5315 96.2107 71.5784 96.117 71.6955 95.9295C71.9299 95.5779 72.0471 95.367 72.0471 95.367V95.2967C72.9377 93.7732 74.883 90.281 77.8127 84.5154C81.6096 77.0623 85.2424 67.7576 85.2424 67.7576C85.5932 69.803 86.0786 71.823 86.6955 73.8045C87.3518 76.031 88.7346 78.4685 89.8362 80.8357C88.9455 82.0545 88.4065 82.7576 88.4065 82.7576C88.408 82.7757 88.4164 82.7924 88.4299 82.8045C87.7268 83.742 86.9299 84.7498 86.1096 85.7342C83.1096 89.2967 79.5471 93.3748 79.0784 94.5467C78.5159 95.9295 78.6565 96.9607 79.7346 97.7576C80.5315 98.367 81.9377 98.4607 83.4143 98.3435C86.1096 98.156 88.008 97.4998 88.9221 97.0779C90.608 96.4739 92.2015 95.6377 93.6565 94.5935C96.5862 92.4373 98.3674 89.3435 98.2034 85.2654C98.1096 83.0154 97.383 80.7654 96.4924 78.656C96.7502 78.281 97.0315 77.8826 97.2893 77.4842C101.906 70.7107 105.492 63.281 105.492 63.281C105.843 65.3264 106.329 67.3465 106.946 69.3279C107.508 71.2263 108.61 73.3123 109.617 75.3513C105.258 78.8904 102.563 82.992 101.625 85.6873C99.8909 90.6795 101.25 92.9295 103.805 93.4451C104.953 93.6795 106.594 93.1404 107.813 92.6248C109.624 92.022 111.331 91.1446 112.875 90.0232C115.805 87.867 118.641 84.8435 118.453 80.742C118.383 78.8904 117.867 77.0388 117.188 75.2576C120.867 73.7107 125.649 72.867 131.742 73.5701C144.797 75.0935 147.352 83.2498 146.86 86.6482C146.367 90.0467 143.625 91.9451 142.711 92.5076C141.797 93.0701 141.516 93.281 141.586 93.7029C141.703 94.3123 142.125 94.2888 142.899 94.1482C143.977 93.9607 149.742 91.3826 150 85.0779C150.375 77.1092 142.711 68.3435 129.141 68.4138H129.117ZM28.5237 102.328C24.2112 107.039 18.1643 108.82 15.5627 107.32C12.7971 105.703 13.8987 98.7654 19.219 93.7498C22.4534 90.7029 26.6252 87.8904 29.3909 86.156C30.0237 85.781 30.9377 85.2185 32.0627 84.5388C32.2502 84.4217 32.344 84.3748 32.344 84.3748C32.5549 84.2342 32.7893 84.117 33.0237 83.9763C34.969 91.1013 33.094 97.3826 28.5471 102.328H28.5237ZM60.0237 80.906C58.5237 84.5857 55.3596 93.9607 53.4377 93.4685C51.7971 93.0467 50.7893 85.8982 53.1096 78.867C54.2815 75.3279 56.7659 71.1092 58.2424 69.4685C60.6096 66.8201 63.2112 65.9763 63.8205 67.031C64.6409 68.4138 60.9612 78.6092 60.0237 80.906ZM86.0393 93.3279C85.4065 93.656 84.8205 93.867 84.5393 93.7029C84.3284 93.5857 84.7971 93.1404 84.7971 93.1404C84.7971 93.1404 88.0549 89.6482 89.344 88.0545C90.094 87.117 90.9612 86.0154 91.8987 84.7967C91.8987 84.9138 91.9221 85.031 91.9221 85.1717C91.8987 89.367 87.8674 92.2029 86.0393 93.3279ZM106.102 88.7576C105.633 88.4295 105.703 87.3279 107.274 83.906C107.883 82.5701 109.289 80.3201 111.727 78.1638C112.003 78.9801 112.153 79.8336 112.172 80.6951C112.149 85.9685 108.375 87.9373 106.102 88.7576Z" fill="#C04E88"/>
</g>
<defs>
<clipPath id="clip0_668_6341">
<rect width="150" height="120" fill="white"/>
</clipPath>
</defs>
</svg>
