<svg width="141" height="143" viewBox="0 0 141 143" fill="none" xmlns="http://www.w3.org/2000/svg">
<ellipse cx="104.736" cy="134.017" rx="8.31353" ry="8.31353" fill="#71E3D1"/>
<ellipse cx="8.96392" cy="8.31353" rx="8.31353" ry="8.31353" fill="#71E3D1"/>
<ellipse cx="136.493" cy="79.9751" rx="4.15676" ry="4.15676" fill="#71E3D1"/>
<ellipse cx="116.541" cy="16.1294" rx="4.15676" ry="4.15676" fill="#71E3D1"/>
<ellipse cx="24.7599" cy="125.868" rx="4.15676" ry="4.15676" fill="#71E3D1"/>
<path d="M71.0842 101.657C88.688 101.657 102.959 87.3865 102.959 69.7827C102.959 52.1789 88.688 37.9082 71.0842 37.9082C53.4804 37.9082 39.2097 52.1789 39.2097 69.7827C39.2097 87.3865 53.4804 101.657 71.0842 101.657Z" fill="#B9FF8F"/>
<path d="M41.4816 57.9492C41.4816 57.9492 21.9301 58.2831 20.6238 71.2448C19.3175 84.2065 80.6716 94.3379 102.952 91.7252C125.232 89.1125 127.09 77.3628 102.952 67.2169C102.952 67.2169 104.882 79.5473 88.2919 78.5603C68.7767 77.4063 33.2372 75.8242 41.4744 57.9492H41.4816Z" fill="#FFD200"/>
<g opacity="0.44">
<path d="M41.4816 57.959C41.4816 57.959 21.9301 58.2928 20.6238 71.2546C19.3175 84.2163 80.6716 94.3476 102.952 91.735C125.232 89.1223 127.09 77.3725 102.952 67.2267C102.952 67.2267 104.882 79.557 88.2919 78.57C68.7767 77.4161 33.2372 75.834 41.4744 57.959H41.4816Z" fill="white"/>
</g>
<g opacity="0.08">
<path d="M65.4162 52.5534C69.2961 52.5534 72.4413 50.1717 72.4413 47.2337C72.4413 44.2958 69.2961 41.9141 65.4162 41.9141C61.5363 41.9141 58.391 44.2958 58.391 47.2337C58.391 50.1717 61.5363 52.5534 65.4162 52.5534Z" fill="#000001"/>
</g>
<g opacity="0.08">
<path d="M85.399 51.5708C86.6044 49.9149 85.8056 47.2799 83.615 45.6853C81.4243 44.0908 78.6713 44.1406 77.466 45.7966C76.2607 47.4525 77.0594 50.0875 79.2501 51.6821C81.4407 53.2766 84.1937 53.2268 85.399 51.5708Z" fill="#000001"/>
</g>
<g opacity="0.08">
<path d="M74.1977 59.8566C76.2458 59.8566 77.9062 58.6024 77.9062 57.0553C77.9062 55.5081 76.2458 54.2539 74.1977 54.2539C72.1495 54.2539 70.4891 55.5081 70.4891 57.0553C70.4891 58.6024 72.1495 59.8566 74.1977 59.8566Z" fill="#000001"/>
</g>
</svg>
