<svg width="228" height="179" viewBox="0 0 228 179" fill="none" xmlns="http://www.w3.org/2000/svg">
<ellipse cx="94.3447" cy="113.376" rx="3.64967" ry="3.64967" transform="rotate(-15 94.3447 113.376)" fill="#71E3D1"/>
<ellipse cx="63.5715" cy="94.4166" rx="3.64967" ry="3.64967" transform="rotate(-15 63.5715 94.4166)" fill="#71E3D1"/>
<ellipse cx="76.8748" cy="111.634" rx="1.82483" ry="1.82483" transform="rotate(-15 76.8748 111.634)" fill="#71E3D1"/>
<ellipse cx="90.9117" cy="93.515" rx="1.82483" ry="1.82483" transform="rotate(-15 90.9117 93.515)" fill="#71E3D1"/>
<ellipse cx="55.1559" cy="115.189" rx="1.82483" ry="1.82483" transform="rotate(-15 55.1559 115.189)" fill="#71E3D1"/>
<ellipse cx="66.9325" cy="164.308" rx="4.86622" ry="4.86622" transform="rotate(-15 66.9325 164.308)" fill="#71E3D1"/>
<ellipse cx="24.4728" cy="124.296" rx="4.86622" ry="4.86622" transform="rotate(-15 24.4728 124.296)" fill="#71E3D1"/>
<ellipse cx="40.9853" cy="144.558" rx="2.43311" ry="2.43311" transform="rotate(-15 40.9853 144.558)" fill="#71E3D1"/>
<ellipse cx="65.133" cy="127.506" rx="2.43311" ry="2.43311" transform="rotate(-15 65.133 127.506)" fill="#71E3D1"/>
<ellipse cx="34.7175" cy="171.931" rx="2.43311" ry="2.43311" transform="rotate(-15 34.7175 171.931)" fill="#71E3D1"/>
<g opacity="0.03">
<path d="M126.716 47.5323L106.392 54.2688L114.824 56.8464L92.8282 76.7002L125.061 66.1749L125.005 75.9178L137.212 60.7689C137.212 60.7689 128.653 51.9724 126.715 47.5292L126.716 47.5323Z" fill="#000001"/>
</g>
<path d="M124.084 41.2337C124.084 41.2337 152.204 -2.99476 194.662 5.51242C194.662 5.51242 200.789 41.383 139.951 62.1951C139.951 62.1951 130.636 59.5655 124.087 41.2328L124.084 41.2337Z" fill="#E6E6E6"/>
<path d="M137.999 24.9509L123.375 25.0075L102.692 40.1923L124.083 41.2268C124.083 41.2268 134.692 29.1282 138 24.9541L137.999 24.9509Z" fill="#A5A5A5"/>
<path d="M160.735 53.2682L158.891 67.3419L137.553 82.5123L139.947 62.1907C139.947 62.1907 154.277 57.0433 160.731 53.2659L160.735 53.2682Z" fill="#A5A5A5"/>
<ellipse cx="173.425" cy="21.0152" rx="8.17526" ry="8.17526" transform="rotate(-15 173.425 21.0152)" fill="#FCEF89"/>
</svg>
