<svg width="124" height="182" viewBox="0 0 124 182" fill="none" xmlns="http://www.w3.org/2000/svg">
<path d="M16.576 60.0234C16.576 60.0234 42.9321 66.3281 48.5609 95.4214C54.1897 124.515 54.6215 150.083 70.1063 150.968C85.5912 151.853 96.773 91.0112 96.773 91.0112L108.387 94.0937C108.387 94.0937 96.3639 226.345 33.5533 164.626C-29.2573 102.906 16.5836 60.0156 16.5836 60.0156L16.576 60.0234Z" fill="#68E1FD"/>
<g opacity="0.46">
<path d="M16.576 60.0234C16.576 60.0234 42.9321 66.3281 48.5609 95.4214C54.1897 124.515 54.6215 150.083 70.1063 150.968C85.5912 151.853 96.773 91.0112 96.773 91.0112L108.387 94.0937C108.387 94.0937 96.3639 226.345 33.5533 164.626C-29.2573 102.906 16.5836 60.0156 16.5836 60.0156L16.576 60.0234Z" fill="white"/>
</g>
<path d="M98.7354 91.5401C98.7354 91.5401 97.4173 77.3623 105.16 78.294C112.902 79.2257 108.387 94.1024 108.387 94.1024L98.743 91.5401H98.7354Z" fill="#F4A28C"/>
<path d="M92.3683 50.5772L84.6932 55.6855L99.2046 78.5875L106.88 73.4791L92.3683 50.5772Z" fill="#FFD200"/>
<g opacity="0.08">
<path d="M92.3683 50.5772L84.6932 55.6855L99.2046 78.5875L106.88 73.4791L92.3683 50.5772Z" fill="#000001"/>
</g>
<path d="M105.005 65.6819L93.2001 73.5391L111.842 102.959L123.647 95.1022L105.005 65.6819Z" fill="#24285B"/>
<ellipse cx="73.5004" cy="30.9375" rx="24.6212" ry="25.2344" fill="#68E1FD" fill-opacity="0.5"/>
<path d="M57.3564 5.57833C43.4549 14.8335 39.5003 33.8874 48.5306 48.1429C57.5609 62.3906 76.1518 66.4436 90.0609 57.1885C103.962 47.9333 107.917 28.8794 98.8867 14.6239C89.8564 0.376163 71.2655 -3.67686 57.3564 5.57833ZM85.2579 49.6104C75.4321 56.148 62.3033 53.2829 55.9246 43.2203C49.5458 33.1498 52.3412 19.694 62.1594 13.1564C71.9852 6.61876 85.114 9.48383 91.4927 19.5465C97.8715 29.617 95.0761 43.0727 85.2579 49.6104Z" fill="#FFD200"/>
</svg>
