<svg width="250" height="389" viewBox="0 0 250 389" fill="none" xmlns="http://www.w3.org/2000/svg">
<g opacity="0.03">
<path d="M110.334 363.515C163.738 363.515 207.031 355.637 207.031 345.92C207.031 336.203 163.738 328.326 110.334 328.326C56.9294 328.326 13.6367 336.203 13.6367 345.92C13.6367 355.637 56.9294 363.515 110.334 363.515Z" fill="#000001"/>
</g>
<path d="M156.819 335.717C156.819 335.717 159.811 340.647 164.607 340.026C169.402 339.405 171.622 343.854 167.644 346.012C163.667 348.171 151.576 344.988 151.576 344.988L150.114 336.058L156.819 335.717Z" fill="#68E1FD"/>
<path d="M75.6821 335.717C75.6821 335.717 72.6897 340.647 67.8942 340.026C63.0988 339.405 60.8791 343.854 64.8563 346.012C68.8336 348.171 80.9245 344.988 80.9245 344.988L82.3866 336.058L75.6821 335.717Z" fill="#68E1FD"/>
<path d="M105.409 55.0078C105.409 55.0078 107.25 64.0844 106.447 70.3658C106.121 72.9126 103.803 74.7372 101.326 74.3645C98.2426 73.9064 94.2123 72.3691 92.6516 67.6328L89.038 59.9227C89.038 59.9227 86.9395 55.0078 91.5683 50.6597C96.1971 46.3116 104.561 49.4252 105.409 55.0078Z" fill="#F4A28C"/>
<path d="M89.6897 61.3145L88.5078 91.6656L104.871 91.1298L99.1593 69.2652L89.6897 61.3145Z" fill="#F4A28C"/>
<path d="M103.228 55.6635C101.667 55.9353 98.7882 56.2769 94.8716 56.0207C94.8716 56.0207 98.1443 59.6855 95.8488 64.4451C93.5534 69.1969 88.7731 67.8304 88.7731 67.8304L87.5534 55.9896C87.0913 52.55 88.4852 49.1181 91.22 47.0683C92.3337 46.2298 93.5837 45.3834 94.8488 44.6691C98.0079 42.8988 103.137 44.5759 105.849 41.9205C107.038 40.7558 109.023 41.3304 109.455 42.9532C110.387 46.486 110.417 52.2239 105.902 54.7629C105.076 55.2287 104.159 55.4927 103.235 55.6558L103.228 55.6635Z" fill="#24285B"/>
<path d="M96.7731 64.0463C96.7731 64.0463 96.2959 60.5135 93.7277 61.1036C91.1595 61.6937 91.8186 66.8027 95.4095 66.8493L96.7731 64.0463Z" fill="#F4A28C"/>
<path d="M106.281 60.7852L109.19 64.0229C109.91 64.8227 109.569 66.1193 108.561 66.4454L105.205 67.5247L106.281 60.7852Z" fill="#F4A28C"/>
<g opacity="0.31">
<path d="M100.606 73.9919C100.606 73.9919 97.5381 73.7279 94.9775 71.4219C94.9775 71.4219 95.8488 76.9113 102.387 81.6399L100.606 73.9997V73.9919Z" fill="#CE8172"/>
</g>
<path d="M88.5079 91.6647L104.872 91.1367C104.872 91.1367 148.72 91.851 151.447 124.601C154.175 157.352 135.47 182.912 141.705 208.473L82.1973 216.26C82.1973 216.26 -15.333 115.82 88.5079 91.6725V91.6647Z" fill="#68E1FD"/>
<g opacity="0.08">
<path d="M80.7126 113.771C80.7126 113.771 100.849 130.286 87.4626 159.892C74.0763 189.498 82.3263 198.901 102.394 193.427C122.463 187.96 130.576 165.708 130.576 165.708L140.432 196.998C140.432 196.998 140.235 203.815 141.713 208.459L82.2051 216.246L80.0535 213.932L53.1141 175.103L80.7202 113.764L80.7126 113.771Z" fill="#000001"/>
</g>
<path d="M165.323 139.164L121.75 131.859L112.111 192.256L155.683 199.561L165.323 139.164Z" fill="#FFD200"/>
<g opacity="0.08">
<path d="M147.546 170.219C147.546 170.219 154.47 178.239 148.78 183.83C143.091 189.42 135.068 196.105 135.068 196.105L115.106 192.58L147.538 170.219H147.546Z" fill="#000001"/>
</g>
<path d="M152.793 133.13L135.171 130.176L133.669 139.585L151.291 142.54L152.793 133.13Z" fill="#24285B"/>
<path d="M82.5079 136.003C92.6064 116.009 69.0003 95.9772 51.5533 109.65C42.3942 116.832 33.7806 127.221 31.0382 141.764C24.417 176.906 28.3109 208.46 51.6897 217.646C75.0685 226.831 136.25 181.3 136.25 181.3L128.455 168.124C128.455 168.124 75.0685 207.265 62.2124 180.508C54.1215 163.667 73.8033 153.248 82.5079 136.003Z" fill="#68E1FD"/>
<g opacity="0.46">
<path d="M82.5079 136.003C92.6064 116.009 69.0003 95.9772 51.5533 109.65C42.3942 116.832 33.7806 127.221 31.0382 141.764C24.417 176.906 28.3109 208.46 51.6897 217.646C75.0685 226.831 136.25 181.3 136.25 181.3L128.455 168.124C128.455 168.124 75.0685 207.265 62.2124 180.508C54.1215 163.667 73.8033 153.248 82.5079 136.003Z" fill="white"/>
</g>
<path d="M130.576 171.7C130.576 171.7 138.402 163.361 145.705 167.538C153.008 171.716 136.258 181.305 136.258 181.305L130.576 171.7Z" fill="#F4A28C"/>
<path d="M82.1973 216.253L70.9246 336.128L82.3791 336.065C82.3791 336.065 100.205 246.992 120.076 235.407C139.947 223.823 141.705 208.465 141.705 208.465L82.1973 216.253Z" fill="#24285B"/>
<path d="M141.705 208.465L160.993 336.12L150.114 336.065C150.114 336.065 134.25 253.848 105.197 234.608L141.705 208.465Z" fill="#24285B"/>
</svg>
