<svg width="426" height="372" viewBox="0 0 426 372" fill="none" xmlns="http://www.w3.org/2000/svg">
<g clip-path="url(#clip0_665_6113)">
<g opacity="0.45">
<path d="M213.461 353.31C323.586 353.31 412.861 342.779 412.861 329.79C412.861 316.8 323.586 306.27 213.461 306.27C103.335 306.27 14.0605 316.8 14.0605 329.79C14.0605 342.779 103.335 353.31 213.461 353.31Z" fill="#E6E6E6"/>
</g>
<path d="M295.11 288.24C295.11 288.24 306.03 264.96 325.93 272.26C345.83 279.56 307.35 308.44 337.87 306.27C368.39 304.1 381 301.76 382.32 326.15H299.65L295.11 288.23V288.24Z" fill="#E6E6E6"/>
<path d="M188.19 110.2C188.19 110.2 170.28 165.43 239.94 203.25C239.94 203.25 238.45 239.08 199.63 237.58C160.82 236.09 118.52 214.19 128.97 156.47C139.42 98.7503 174.25 97.7503 188.18 110.19L188.19 110.2Z" fill="#FFD200"/>
<g opacity="0.08">
<path d="M188.19 110.2C188.19 110.2 170.28 165.43 239.94 203.25C239.94 203.25 238.45 239.08 199.63 237.58C160.82 236.09 118.52 214.19 128.97 156.47C139.42 98.7503 174.25 97.7503 188.18 110.19L188.19 110.2Z" fill="#000001"/>
</g>
<path d="M87.1801 326.15C87.1801 326.15 123.5 222.65 84.6901 163.93C45.8801 105.21 58.0701 62.4202 109.2 28.5802C160.33 -5.25981 222.03 40.0202 228 96.7502L191.18 91.7702L199.14 120.13L170.28 118.94L169.28 147.88L142.41 147.55C142.41 147.55 134.45 227.29 184.21 223.97L189.19 198.76L227.01 212.03L240.94 169.43L248.73 175.68C262.18 186.48 272.08 201.05 277.12 217.55C286.03 246.71 299 294.29 299.65 326.15H87.1801Z" fill="#FF6BE6"/>
<path d="M171.192 89.3748C191.505 76.1379 198.414 50.7408 186.625 32.6488C174.835 14.5568 148.811 10.6209 128.498 23.8577C108.185 37.0946 101.275 62.4917 113.065 80.5837C124.854 98.6758 150.878 102.612 171.192 89.3748Z" fill="white"/>
<path d="M178.562 68.3194C190.648 60.4437 193.831 43.9088 185.672 31.3878C177.513 18.8668 161.101 15.1012 149.015 22.9769C136.929 30.8527 133.745 47.3876 141.904 59.9086C150.064 72.4295 166.476 76.1952 178.562 68.3194Z" fill="#24285B"/>
<g opacity="0.22">
<path d="M170.846 44.7014C176.616 40.9414 178.136 33.047 174.24 27.0688C170.344 21.0905 162.509 19.2923 156.739 23.0523C150.969 26.8123 149.449 34.7067 153.345 40.6849C157.24 46.6631 165.076 48.4614 170.846 44.7014Z" fill="white"/>
</g>
<g opacity="0.08">
<path d="M78.5702 55.4697C78.5702 55.4697 71.0902 119.82 98.9502 143.7C126.82 167.58 154.02 285.02 148.05 326.15H87.1802C87.1802 326.15 111.89 261.46 97.9602 197.44C97.9602 197.44 97.0702 180.65 74.2902 146.25C74.2902 146.25 44.5902 97.2797 78.5702 55.4697Z" fill="#000001"/>
</g>
<path d="M158.1 214.93C158.1 214.93 144.4 186.44 172.26 170.71C200.13 154.98 224.51 172.4 229.98 136.07C235.45 99.7505 291.18 83.3205 320.05 111.19C320.05 111.19 261.33 100.74 253.37 143.04C253.37 143.04 250.88 163.5 240.93 169.44L227 212.04L189.18 198.77L184.2 223.98C184.2 223.98 171.8 227.61 158.1 214.93Z" fill="#FFB6C4"/>
<g opacity="0.08">
<path d="M170.01 222.56C170.01 222.56 162.56 196.03 177.49 189.56C192.42 183.09 206.1 193.04 216.8 179.86C227.5 166.67 238.69 163.27 239.94 147.56C241.18 131.84 256.24 116.67 277.2 114.68C277.2 114.68 254.75 122.86 252.32 148.75C252.32 148.75 249.89 164.74 240.94 169.44L227.01 212.04L189.19 198.77L184.21 223.98C184.21 223.98 174.62 224.76 170.02 222.56H170.01Z" fill="#000001"/>
</g>
<path d="M50.59 326.15C50.59 326.15 42.63 293.49 67.84 293.49C93.05 293.49 81.11 317.72 109.64 306.27C138.17 294.82 161.52 299.19 163.79 326.15H50.59Z" fill="#E6E6E6"/>
</g>
<defs>
<clipPath id="clip0_665_6113">
<rect width="426" height="372" fill="white"/>
</clipPath>
</defs>
</svg>
