<svg width="144" height="92" viewBox="0 0 144 92" fill="none" xmlns="http://www.w3.org/2000/svg">
<path d="M73.0285 91.5936C98.2826 91.5936 118.755 71.1212 118.755 45.8671C118.755 20.6131 98.2826 0.140625 73.0285 0.140625C47.7744 0.140625 27.302 20.6131 27.302 45.8671C27.302 71.1212 47.7744 91.5936 73.0285 91.5936Z" fill="#FCFCFC"/>
<path d="M30.5607 28.8945C30.5607 28.8945 2.51264 29.3735 0.6386 47.9681C-1.23544 66.5627 86.7818 81.0969 118.745 77.3488C150.707 73.6007 153.373 56.7448 118.745 42.1898C118.745 42.1898 121.514 59.8786 97.7137 58.4627C69.7177 56.8073 18.7335 54.5376 30.5503 28.8945H30.5607Z" fill="#FFD200"/>
<g opacity="0.44">
<path d="M30.5607 28.8945C30.5607 28.8945 2.51264 29.3735 0.6386 47.9681C-1.23544 66.5627 86.7818 81.0969 118.745 77.3488C150.707 73.6007 153.373 56.7448 118.745 42.1898C118.745 42.1898 121.514 59.8786 97.7137 58.4627C69.7177 56.8073 18.7335 54.5376 30.5503 28.8945H30.5607Z" fill="white"/>
</g>
<g opacity="0.08">
<path d="M64.898 21.1478C70.464 21.1478 74.9762 17.731 74.9762 13.5163C74.9762 9.3015 70.464 5.88477 64.898 5.88477C59.332 5.88477 54.8198 9.3015 54.8198 13.5163C54.8198 17.731 59.332 21.1478 64.898 21.1478Z" fill="#000001"/>
</g>
<g opacity="0.08">
<path d="M93.5637 19.746C95.2928 17.3704 94.147 13.5902 91.0043 11.3027C87.8616 9.01526 83.9123 9.0867 82.1831 11.4623C80.454 13.8379 81.5999 17.618 84.7425 19.9055C87.8852 22.193 91.8346 22.1215 93.5637 19.746Z" fill="#000001"/>
</g>
<g opacity="0.08">
<path d="M77.495 31.6235C80.4332 31.6235 82.8152 29.8242 82.8152 27.6047C82.8152 25.3852 80.4332 23.5859 77.495 23.5859C74.5567 23.5859 72.1748 25.3852 72.1748 27.6047C72.1748 29.8242 74.5567 31.6235 77.495 31.6235Z" fill="#000001"/>
</g>
</svg>
