<svg width="366" height="371" viewBox="0 0 366 371" fill="none" xmlns="http://www.w3.org/2000/svg">
<g opacity="0.03">
<path d="M123.57 259.41L58.42 263.21L81.21 277.45L0.790039 318.55L103.99 312.99L96.14 341.63L144.03 306.66C144.03 306.66 125.77 274.01 123.57 259.4V259.41Z" fill="#000001"/>
</g>
<path d="M242.55 155.33C242.55 155.33 265.94 148.69 277.25 158.65C288.57 168.61 273.18 190.46 273.18 190.46L242.55 155.34V155.33Z" fill="#24285B"/>
<path d="M120.79 238.77C120.79 238.77 238.47 130.74 356.76 189.28C356.76 189.28 346.5 299.72 150.97 313C150.97 313 125.62 297.91 120.8 238.77H120.79Z" fill="#E6E6E6"/>
<path d="M219.521 17.9307L219.79 47.9007L236.211 46.5707L229.411 25.3007L219.521 17.9307Z" fill="#F4A28C"/>
<g opacity="0.31">
<path d="M231.1 29.8899C231.1 29.8899 228 29.7899 225.32 27.6299C225.32 27.6299 226.46 32.9999 233.26 37.3299L231.1 29.8899Z" fill="#CE8172"/>
</g>
<path d="M254.08 59.7701C255.47 51.8901 264.87 48.3701 270.97 53.5501C276.77 58.4801 283.27 66.0101 288.03 77.2301C298.89 102.8 303.19 112.99 314.96 108.46C326.73 103.93 350.04 71.8001 350.04 71.8001L359.09 78.5901C359.09 78.5901 342.8 121.93 316.32 131.43C291.42 140.37 241.34 132.21 254.08 59.7701Z" fill="#68E1FD"/>
<g opacity="0.08">
<path d="M254.08 59.7701C255.47 51.8901 264.87 48.3701 270.97 53.5501C276.77 58.4801 283.27 66.0101 288.03 77.2301C298.89 102.8 303.19 112.99 314.96 108.46C326.73 103.93 350.04 71.8001 350.04 71.8001L359.09 78.5901C359.09 78.5901 342.8 121.93 316.32 131.43C291.42 140.37 241.34 132.21 254.08 59.7701Z" fill="#000001"/>
</g>
<path d="M235.77 14.0103C235.77 14.0103 237.55 22.9803 236.69 29.1703C236.34 31.6803 234 33.4603 231.51 33.0703C228.42 32.5903 224.37 31.0403 222.84 26.3503L219.27 18.7103C219.27 18.7103 217.2 13.8403 221.89 9.59031C226.58 5.34031 234.97 8.48032 235.78 14.0003L235.77 14.0103Z" fill="#F4A28C"/>
<path d="M233.57 14.6403C232 14.9003 229.1 15.2103 225.17 14.9203C225.17 14.9203 228.43 18.5603 226.08 23.2403C223.73 27.9103 218.94 26.5203 218.94 26.5203L217.81 14.8303C217.37 11.4303 218.8 8.06032 221.57 6.06032C222.7 5.24032 223.96 4.41032 225.24 3.73032C228.43 2.01032 233.58 3.71032 236.33 1.11032C237.54 -0.0296782 239.52 0.550325 239.94 2.16032C240.85 5.65032 240.83 11.3103 236.27 13.7903C235.43 14.2403 234.52 14.5003 233.58 14.6503L233.57 14.6403Z" fill="#FFD200"/>
<path d="M227.02 22.86C227.02 22.86 226.57 19.37 223.98 19.93C221.39 20.49 222.02 25.54 225.62 25.62L227.01 22.87L227.02 22.86Z" fill="#F4A28C"/>
<path d="M236.6 19.7207L239.5 22.9407C240.22 23.7407 239.87 25.0107 238.85 25.3207L235.47 26.3607L236.61 19.7207H236.6Z" fill="#F4A28C"/>
<path d="M213.65 42.4203L232.86 40.8604C232.86 40.8604 272.62 40.8904 280.03 67.9104C287.45 94.9304 255.66 162.21 255.66 162.21L185.2 164.86C185.2 164.86 179.45 128.83 181 96.5204C182.55 64.2004 183.82 48.2003 213.65 42.4303V42.4203Z" fill="#68E1FD"/>
<g opacity="0.08">
<path d="M236.21 72.7401C236.21 72.7401 233.27 101.36 214.94 107.02C196.61 112.68 195.9 149.9 211.3 163.88L185.2 164.86C185.2 164.86 178.98 128.84 181.23 91.9101C183.48 54.9701 236.2 72.75 236.2 72.75L236.21 72.7401Z" fill="#000001"/>
</g>
<path d="M234.68 77.0399C243.1 59.0499 226.51 39.3599 207.21 44.0399C183.65 49.7499 149.56 61.42 139.9 82.47C124.71 115.58 112.28 145.81 112.28 145.81L128.47 151.92C128.47 151.92 162.32 81.2 198.8 90.83C217.28 95.71 229.35 88.44 234.68 77.05V77.0399Z" fill="#68E1FD"/>
<g opacity="0.08">
<path d="M191.4 193.441C191.4 193.441 202.9 206.781 230.95 202.561L205.44 227.551C202.41 230.521 201.41 235.001 202.9 238.971L205.23 245.191C207.01 249.931 212.58 251.981 216.99 249.491C233.61 240.131 269.75 215.371 281.4 171.891C281.4 171.891 271.06 172.071 263.82 172.681C256.58 173.281 204.37 185.231 191.4 193.441Z" fill="#000001"/>
</g>
<g opacity="0.44">
<path d="M234.68 77.0399C243.1 59.0499 226.51 39.3599 207.21 44.0399C183.65 49.7499 149.56 61.42 139.9 82.47C124.71 115.58 112.28 145.81 112.28 145.81L128.47 151.92C128.47 151.92 162.32 81.2 198.8 90.83C217.28 95.71 229.35 88.44 234.68 77.05V77.0399Z" fill="white"/>
</g>
<path d="M185.2 164.85C185.2 164.85 243.98 144.35 262.08 162.76C280.18 181.17 219.51 225.83 219.51 225.83L211.69 216.48L235.46 186.31C235.46 186.31 181.34 201.05 185.2 164.86V164.85Z" fill="#24285B"/>
<path d="M174.6 201.83L131.5 190.46L58.6299 218.85L120.79 238.77C120.79 238.77 161.57 211.52 174.6 201.84V201.83Z" fill="#A5A5A5"/>
<path d="M219.2 303.12L202.67 343.1L127.88 370.93L150.96 312.99C150.96 312.99 197.21 309.14 219.19 303.11L219.2 303.12Z" fill="#A5A5A5"/>
<path d="M213.8 218.99L208.05 219.44C206.01 219.6 204.63 221.6 205.21 223.57L208.99 236.26C209.68 238.59 212.95 238.68 213.77 236.4L218.19 224.23L213.8 218.98V218.99Z" fill="#68E1FD"/>
<path d="M351.64 73C351.64 73 357.67 61.04 363.4 61.04C369.13 61.04 361.59 68.47 361.59 68.47C361.59 68.47 369.28 75.6401 359.1 78.6001L351.64 73.01V73Z" fill="#F4A28C"/>
<path d="M116.62 147.44C116.62 147.44 103.95 164.86 116.62 164.85C129.29 164.84 128.47 151.91 128.47 151.91L116.62 147.44Z" fill="#F4A28C"/>
</svg>
