<svg width="265" height="164" viewBox="0 0 265 164" fill="none" xmlns="http://www.w3.org/2000/svg">
<path d="M82.557 43.7649C84.5885 43.7649 86.2354 42.1181 86.2354 40.0866C86.2354 38.0551 84.5885 36.4082 82.557 36.4082C80.5255 36.4082 78.8787 38.0551 78.8787 40.0866C78.8787 42.1181 80.5255 43.7649 82.557 43.7649Z" fill="#FFD200"/>
<path d="M171.049 6.05908C172.523 6.05908 173.719 4.86383 173.719 3.38941C173.719 1.91498 172.523 0.719727 171.049 0.719727C169.574 0.719727 168.379 1.91498 168.379 3.38941C168.379 4.86383 169.574 6.05908 171.049 6.05908Z" fill="white"/>
<path d="M213.093 127.97C214.034 127.97 214.796 127.207 214.796 126.267C214.796 125.326 214.034 124.563 213.093 124.563C212.152 124.563 211.39 125.326 211.39 126.267C211.39 127.207 212.152 127.97 213.093 127.97Z" fill="white"/>
<path d="M4.83414 97.8441C5.77483 97.8441 6.53742 97.0815 6.53742 96.1408C6.53742 95.2001 5.77483 94.4375 4.83414 94.4375C3.89344 94.4375 3.13086 95.2001 3.13086 96.1408C3.13086 97.0815 3.89344 97.8441 4.83414 97.8441Z" fill="white"/>
<path d="M108.734 6.29426C109.675 6.29426 110.437 5.53167 110.437 4.59098C110.437 3.65028 109.675 2.8877 108.734 2.8877C107.793 2.8877 107.031 3.65028 107.031 4.59098C107.031 5.53167 107.793 6.29426 108.734 6.29426Z" fill="white"/>
<path d="M71.5761 149.213C72.5168 149.213 73.2794 148.451 73.2794 147.51C73.2794 146.569 72.5168 145.807 71.5761 145.807C70.6354 145.807 69.8728 146.569 69.8728 147.51C69.8728 148.451 70.6354 149.213 71.5761 149.213Z" fill="white"/>
<path d="M29.7793 146.21C30.0862 146.21 30.335 145.961 30.335 145.654C30.335 145.347 30.0862 145.099 29.7793 145.099C29.4724 145.099 29.2236 145.347 29.2236 145.654C29.2236 145.961 29.4724 146.21 29.7793 146.21Z" fill="white"/>
<path d="M54.4949 22.2217C54.8018 22.2217 55.0506 21.9729 55.0506 21.666C55.0506 21.3591 54.8018 21.1104 54.4949 21.1104C54.188 21.1104 53.9392 21.3591 53.9392 21.666C53.9392 21.9729 54.188 22.2217 54.4949 22.2217Z" fill="white"/>
<path d="M150.785 29.5948C151.092 29.5948 151.34 29.346 151.34 29.0391C151.34 28.7322 151.092 28.4834 150.785 28.4834C150.478 28.4834 150.229 28.7322 150.229 29.0391C150.229 29.346 150.478 29.5948 150.785 29.5948Z" fill="white"/>
<path d="M85.8909 121.968C86.1978 121.968 86.4466 121.719 86.4466 121.412C86.4466 121.105 86.1978 120.856 85.8909 120.856C85.584 120.856 85.3352 121.105 85.3352 121.412C85.3352 121.719 85.584 121.968 85.8909 121.968Z" fill="white"/>
<path d="M177.705 73.6827C178.012 73.6827 178.261 73.4339 178.261 73.127C178.261 72.8201 178.012 72.5713 177.705 72.5713C177.398 72.5713 177.149 72.8201 177.149 73.127C177.149 73.4339 177.398 73.6827 177.705 73.6827Z" fill="white"/>
<path d="M43.4297 88.0752C43.7366 88.0752 43.9854 87.8264 43.9854 87.5195C43.9854 87.2127 43.7366 86.9639 43.4297 86.9639C43.1228 86.9639 42.874 87.2127 42.874 87.5195C42.874 87.8264 43.1228 88.0752 43.4297 88.0752Z" fill="white"/>
<path d="M246.168 87.6944C246.475 87.6944 246.724 87.4456 246.724 87.1387C246.724 86.8318 246.475 86.583 246.168 86.583C245.861 86.583 245.613 86.8318 245.613 87.1387C245.613 87.4456 245.861 87.6944 246.168 87.6944Z" fill="white"/>
<path d="M234.01 19.3877C234.317 19.3877 234.566 19.1389 234.566 18.832C234.566 18.5252 234.317 18.2764 234.01 18.2764C233.703 18.2764 233.455 18.5252 233.455 18.832C233.455 19.1389 233.703 19.3877 234.01 19.3877Z" fill="white"/>
<path d="M209.487 163.171C209.794 163.171 210.043 162.922 210.043 162.615C210.043 162.308 209.794 162.06 209.487 162.06C209.18 162.06 208.932 162.308 208.932 162.615C208.932 162.922 209.18 163.171 209.487 163.171Z" fill="white"/>
<path d="M164.169 136.486C164.476 136.486 164.725 136.238 164.725 135.931C164.725 135.624 164.476 135.375 164.169 135.375C163.862 135.375 163.614 135.624 163.614 135.931C163.614 136.238 163.862 136.486 164.169 136.486Z" fill="white"/>
<path d="M246.561 156.389C256.218 156.389 264.047 148.56 264.047 138.903C264.047 129.246 256.218 121.417 246.561 121.417C236.904 121.417 229.075 129.246 229.075 138.903C229.075 148.56 236.904 156.389 246.561 156.389Z" fill="#68E1FD"/>
<g opacity="0.08">
<path d="M257.871 135.501C259.041 133.894 258.266 131.336 256.141 129.79C254.016 128.243 251.345 128.292 250.175 129.899C249.005 131.507 249.779 134.064 251.904 135.611C254.029 137.157 256.701 137.108 257.871 135.501Z" fill="#000001"/>
</g>
<g opacity="0.08">
<path d="M242.968 132.71C244.956 132.71 246.567 131.49 246.567 129.986C246.567 128.481 244.956 127.262 242.968 127.262C240.979 127.262 239.368 128.481 239.368 129.986C239.368 131.49 240.979 132.71 242.968 132.71Z" fill="#000001"/>
</g>
<path d="M22.1627 78.1642C34.1215 78.1642 43.8161 68.4697 43.8161 56.5108C43.8161 44.552 34.1215 34.8574 22.1627 34.8574C10.2038 34.8574 0.509277 44.552 0.509277 56.5108C0.509277 68.4697 10.2038 78.1642 22.1627 78.1642Z" fill="#68E1FD"/>
<g opacity="0.08">
<path d="M24.1194 49.0103C27.3451 48.5684 29.6887 46.2303 29.3542 43.788C29.0196 41.3456 26.1335 39.7239 22.9079 40.1658C19.6823 40.6076 17.3386 42.9457 17.6732 45.3881C18.0077 47.8304 20.8938 49.4522 24.1194 49.0103Z" fill="#000001"/>
</g>
<g opacity="0.08">
<path d="M13.6417 54.0607C15.4167 52.3549 15.8102 49.8841 14.5204 48.542C13.2307 47.1998 10.7462 47.4947 8.97111 49.2005C7.19605 50.9062 6.80262 53.3771 8.09237 54.7192C9.38211 56.0613 11.8666 55.7665 13.6417 54.0607Z" fill="#000001"/>
</g>
</svg>
