<svg width="100" height="125" viewBox="0 0 100 125" fill="none" xmlns="http://www.w3.org/2000/svg">
<path d="M51.0642 42.3893C51.0642 42.3893 58 63.5147 31.0235 77.9807C31.0235 77.9807 31.6005 91.6856 46.6339 91.1119C61.6635 90.542 78.0446 82.1653 73.9977 60.0875C69.9509 38.0097 56.4626 37.6272 51.0681 42.3855L51.0642 42.3893Z" fill="#FFD200"/>
<g opacity="0.08">
<path d="M51.0641 42.3893C51.0641 42.3893 57.9999 63.5147 31.0234 77.9807C31.0234 77.9807 31.6004 91.6856 46.6338 91.1119C61.6634 90.542 78.0445 82.1653 73.9976 60.0875C69.9508 38.0097 56.4625 37.6272 51.0679 42.3855L51.0641 42.3893Z" fill="#000001"/>
</g>
<path d="M90.1814 124.987C90.1814 124.987 76.1161 85.3981 91.1457 62.9379C106.175 40.4776 101.455 24.1105 81.654 11.1668C61.8533 -1.7769 37.9594 15.5426 35.6474 37.2417L49.9064 35.3368L46.8238 46.1845L58.0001 45.7293L58.3874 56.7988L68.7931 56.6726C68.7931 56.6726 71.8756 87.1729 52.6056 85.903L50.677 76.2603L36.0308 81.336L30.6363 65.0416L27.6195 67.4322C22.4109 71.5632 18.577 77.1362 16.6252 83.4474C13.1747 94.601 8.15196 112.8 7.90024 124.987H90.1814Z" fill="#FF6BE6"/>
<path d="M57.647 34.4219C49.7806 29.3589 47.1048 19.6445 51.6704 12.7244C56.236 5.8042 66.3142 4.29873 74.1806 9.3618C82.0471 14.4249 84.7229 24.1392 80.1573 31.0594C75.5917 37.9795 65.5135 39.485 57.647 34.4219Z" fill="white"/>
<path d="M54.7927 26.3693C50.1123 23.3568 48.8795 17.0323 52.0392 12.243C55.199 7.4538 61.5547 6.01344 66.2351 9.02591C70.9156 12.0384 72.1484 18.3629 68.9886 23.1522C65.8289 27.9414 59.4732 29.3818 54.7927 26.3693Z" fill="#24285B"/>
<g opacity="0.22">
<path d="M57.7807 17.3368C55.5462 15.8986 54.9578 12.879 56.4664 10.5924C57.9751 8.30572 61.0095 7.6179 63.244 9.05609C65.4785 10.4943 66.0669 13.5139 64.5583 15.8005C63.0496 18.0872 60.0152 18.775 57.7807 17.3368Z" fill="white"/>
</g>
<g opacity="0.08">
<path d="M93.5156 21.4531C93.5156 21.4531 96.4123 46.0669 85.6232 55.2009C74.8303 64.3349 64.2968 109.255 66.6087 124.988H90.1813C90.1813 124.988 80.6121 100.244 86.0066 75.7563C86.0066 75.7563 86.3513 69.3342 95.173 56.1763C95.173 56.1763 106.675 37.4454 93.5156 21.4531Z" fill="#000001"/>
</g>
<path d="M62.7169 82.4453C62.7169 82.4453 68.0223 71.5479 57.2333 65.5313C46.4403 59.5146 36.9989 66.1777 34.8806 52.2815C32.7623 38.3892 11.1803 32.1048 5.89355e-05 42.765C5.89355e-05 42.765 22.74 38.7679 25.8226 54.9475C25.8226 54.9475 26.7869 62.7734 30.6401 65.0455L36.0346 81.3399L50.6808 76.2641L52.6094 85.9069C52.6094 85.9069 57.4114 87.2954 62.7169 82.4453Z" fill="#FFB6C4"/>
<g opacity="0.08">
<path d="M58.1045 85.3654C58.1045 85.3654 60.9896 75.2177 55.2078 72.743C49.426 70.2682 44.1283 74.0741 39.9846 69.0327C35.8409 63.9876 31.5075 62.6871 31.0234 56.6781C30.5432 50.6652 24.7111 44.8627 16.5941 44.1016C16.5941 44.1016 25.2881 47.2304 26.2291 57.1333C26.2291 57.1333 27.1702 63.2494 30.6361 65.0471L36.0307 81.3415L50.6769 76.2658L52.6054 85.9086C52.6054 85.9086 56.3192 86.2069 58.1006 85.3654H58.1045Z" fill="#000001"/>
</g>
</svg>
