<svg width="93" height="60" viewBox="0 0 93 60" fill="none" xmlns="http://www.w3.org/2000/svg">
<g clip-path="url(#clip0_646_1467)">
<path d="M78.6784 0.973558C78.3918 0.378606 77.786 0 77.1207 0C76.4555 0 75.8551 0.378606 75.563 0.973558L72.0853 8.12921L64.3184 9.27584C63.6694 9.3732 63.1285 9.82753 62.9284 10.4495C62.7283 11.0715 62.8906 11.7584 63.3557 12.2182L68.9915 17.7945L67.661 25.6749C67.5528 26.3239 67.8233 26.9838 68.3587 27.3678C68.8942 27.7518 69.6027 27.8005 70.1868 27.4922L77.1261 23.7873L84.0654 27.4922C84.6496 27.8005 85.3581 27.7572 85.8936 27.3678C86.429 26.9784 86.6995 26.3239 86.5913 25.6749L85.2553 17.7945L90.8912 12.2182C91.3563 11.7584 91.524 11.0715 91.3184 10.4495C91.1129 9.82753 90.5775 9.3732 89.9284 9.27584L82.1562 8.12921L78.6784 0.973558Z" fill="#30FF51"/>
</g>
<g clip-path="url(#clip1_646_1467)">
<path d="M13.6993 18.6009C13.3053 18.2167 12.723 18.0929 12.2021 18.2825C11.6811 18.4721 11.3189 18.9397 11.2597 19.4889L10.5759 26.0835L4.82065 29.1951C4.34015 29.4563 4.0461 29.9662 4.06667 30.5104C4.08724 31.0545 4.41008 31.5461 4.90536 31.7735L10.908 34.5339L12.1121 41.0841C12.2124 41.6232 12.6122 42.0628 13.141 42.2109C13.6698 42.359 14.2385 42.1952 14.608 41.7873L18.9861 36.9082L25.476 37.8317C26.0213 37.9066 26.5638 37.6708 26.8721 37.2132C27.1805 36.7557 27.2057 36.1661 26.936 35.6887L23.6438 29.8985L26.4677 23.9255C26.701 23.4329 26.6365 22.8472 26.2982 22.4187C25.96 21.9902 25.4112 21.7871 24.8752 21.8958L18.4622 23.2131L13.6993 18.6009Z" fill="#E26BA8"/>
</g>
<g clip-path="url(#clip2_646_1467)">
<path d="M58.7529 45.1561C58.5937 44.8256 58.2572 44.6152 57.8876 44.6152C57.518 44.6152 57.1844 44.8256 57.0222 45.1561L55.0901 49.1315L50.7752 49.7685C50.4146 49.8226 50.1141 50.075 50.0029 50.4205C49.8918 50.7661 49.9819 51.1477 50.2403 51.4031L53.3713 54.5011L52.6322 58.8791C52.5721 59.2396 52.7223 59.6062 53.0198 59.8196C53.3172 60.0329 53.7109 60.0599 54.0354 59.8887L57.8906 57.8304L61.7457 59.8887C62.0703 60.0599 62.4639 60.0359 62.7614 59.8196C63.0588 59.6032 63.2091 59.2396 63.149 58.8791L62.4068 54.5011L65.5378 51.4031C65.7962 51.1477 65.8894 50.7661 65.7752 50.4205C65.661 50.075 65.3635 49.8226 65.0029 49.7685L60.685 49.1315L58.7529 45.1561Z" fill="#FFD362"/>
</g>
<defs>
<clipPath id="clip0_646_1467">
<rect width="31.1538" height="27.6923" fill="white" transform="translate(61.5385)"/>
</clipPath>
<clipPath id="clip1_646_1467">
<rect width="25.9615" height="23.0769" fill="white" transform="translate(0 22.7246) rotate(-20)"/>
</clipPath>
<clipPath id="clip2_646_1467">
<rect width="17.3077" height="15.3846" fill="white" transform="translate(49.2307 44.6152)"/>
</clipPath>
</defs>
</svg>
