<svg width="300" height="217" viewBox="0 0 300 217" fill="none" xmlns="http://www.w3.org/2000/svg">
<path d="M150 195.333C224.512 195.333 284.917 163.62 284.917 124.499C284.917 85.3792 224.512 53.666 150 53.666C75.4876 53.666 15.0833 85.3792 15.0833 124.499C15.0833 163.62 75.4876 195.333 150 195.333Z" fill="#FCEF89"/>
<path opacity="0.38" d="M150 195.333C224.512 195.333 284.917 163.62 284.917 124.499C284.917 85.3792 224.512 53.666 150 53.666C75.4876 53.666 15.0833 85.3792 15.0833 124.499C15.0833 163.62 75.4876 195.333 150 195.333Z" fill="#3A3A6C"/>
<path d="M150 186.499C224.512 186.499 284.917 154.786 284.917 115.665C284.917 76.5452 224.512 44.832 150 44.832C75.4876 44.832 15.0833 76.5452 15.0833 115.665C15.0833 154.786 75.4876 186.499 150 186.499Z" fill="#A5A5A5"/>
<path d="M43.6667 110.753C47.7628 110.753 51.0834 107.433 51.0834 103.337C51.0834 99.2405 47.7628 95.9199 43.6667 95.9199C39.5706 95.9199 36.2501 99.2405 36.2501 103.337C36.2501 107.433 39.5706 110.753 43.6667 110.753Z" fill="#FFCF49"/>
<path d="M255.417 110.836C259.559 110.836 262.917 107.478 262.917 103.336C262.917 99.1938 259.559 95.8359 255.417 95.8359C251.275 95.8359 247.917 99.1938 247.917 103.336C247.917 107.478 251.275 110.836 255.417 110.836Z" fill="#FFCF49"/>
<path d="M58.5833 145.583C62.6794 145.583 66 142.263 66 138.167C66 134.071 62.6794 130.75 58.5833 130.75C54.4872 130.75 51.1666 134.071 51.1666 138.167C51.1666 142.263 54.4872 145.583 58.5833 145.583Z" fill="#FFCF49"/>
<path d="M91.25 161.918C95.3921 161.918 98.75 158.56 98.75 154.418C98.75 150.276 95.3921 146.918 91.25 146.918C87.1079 146.918 83.75 150.276 83.75 154.418C83.75 158.56 87.1079 161.918 91.25 161.918Z" fill="#FFCF49"/>
<path d="M142.583 172.334C146.725 172.334 150.083 168.976 150.083 164.834C150.083 160.692 146.725 157.334 142.583 157.334C138.441 157.334 135.083 160.692 135.083 164.834C135.083 168.976 138.441 172.334 142.583 172.334Z" fill="#FFCF49"/>
<path d="M191.667 164.914C195.809 164.914 199.167 161.556 199.167 157.414C199.167 153.272 195.809 149.914 191.667 149.914C187.525 149.914 184.167 153.272 184.167 157.414C184.167 161.556 187.525 164.914 191.667 164.914Z" fill="#FFCF49"/>
<path d="M230.5 141.668C234.642 141.668 238 138.31 238 134.168C238 130.026 234.642 126.668 230.5 126.668C226.358 126.668 223 130.026 223 134.168C223 138.31 226.358 141.668 230.5 141.668Z" fill="#FFCF49"/>
<path d="M230.5 83.75C234.642 83.75 238 80.3921 238 76.25C238 72.1079 234.642 68.75 230.5 68.75C226.358 68.75 223 72.1079 223 76.25C223 80.3921 226.358 83.75 230.5 83.75Z" fill="#FFCF49"/>
<path d="M71.5 83.6673C75.5962 83.6673 78.9167 80.3468 78.9167 76.2506C78.9167 72.1545 75.5962 68.834 71.5 68.834C67.4039 68.834 64.0834 72.1545 64.0834 76.2506C64.0834 80.3468 67.4039 83.6673 71.5 83.6673Z" fill="#FFCF49"/>
<path d="M68.6666 106.501C68.6666 106.501 70.6666 23.584 150 23.584C231.167 23.584 229.583 103.834 229.583 103.834C229.583 103.834 226.083 147.001 148.333 147.001C70.5833 147.001 68.6666 106.501 68.6666 106.501Z" fill="#FCEF89"/>
<path d="M199.5 37.4141C201.5 48.8307 202.833 60.4974 201.583 71.9974C200.083 85.8307 194.333 98.5807 183.917 107.997C171.833 118.914 155.583 126.081 139.833 129.914C121.833 134.164 103.167 134.497 85.0833 130.831C96.3333 139.414 115.75 146.914 149.25 146.914C227 146.914 230.5 103.747 230.5 103.747C230.5 103.747 231.333 60.3307 199.5 37.4141Z" fill="#5AD3C2"/>
<path d="M125.583 40.5833C123.75 37.4166 119.917 36.7499 116.833 38.2499C104.583 44.2499 95.4166 55.1666 91.5833 68.2499C89.2499 76.1666 101.583 79.5833 103.917 71.6666C106.833 61.7499 113.917 53.6666 123.25 49.3333C126.417 47.9166 127.167 43.4166 125.583 40.5833Z" fill="#99FFEB"/>
<path d="M197.333 83.8337C195.417 81.167 191.5 87.0003 190 88.2503C188.5 89.5003 189.25 80.417 185.917 81.167C182.583 81.917 185.417 88.7504 185.917 91.667C186.417 94.5837 177.417 120.417 173.25 113.334C169.083 106.25 161.583 98.917 161.5 98.917C160.25 98.0004 158.917 97.167 157.5 96.417L156.917 96.0837L156.333 95.7504L156 95.5837C154.583 94.917 153.167 94.417 151.75 94.0004L149.75 86.8337C158.833 80.167 161.583 65.5004 151.917 57.917C147.083 54.167 140.417 53.167 135.5 57.2503C134.75 57.8337 134.083 58.5837 133.583 59.3337C129.833 64.667 130.5 73.2504 132.333 79.0004C133.667 83.2504 137.25 90.3337 142.75 89.917H142.833L143.667 93.2503C140 93.5837 136.5 95.0837 133.75 97.5837C133.75 97.5837 125.083 105.584 120.833 108.25C116.583 110.917 112.75 95.0837 110.333 91.2504C107.917 87.417 112.25 80.3337 108.417 79.0837C104.583 77.8337 108.667 83.2504 105.75 85.167C102.833 87.0837 98 79.8337 98 83.917C98 88.0004 105.333 85.3337 105.5 90.0004C105.667 94.667 112.833 119.25 119.583 119C123 118.917 128.5 116.084 133.167 113.334C135.25 121.5 138.583 131.5 137.833 139.084C137.583 141.834 137.333 143.75 137 146.75C146.833 147.084 153.583 147.25 162.417 146.667C163.833 136.5 164.583 126.25 164.833 116C167.5 120.667 171.667 125.917 176.333 124.917C184.333 123.25 189.25 97.667 189.75 95.0004C190.25 92.3337 199.25 86.5837 197.333 83.8337Z" fill="#400D20"/>
<path d="M146.25 65.1688C143.25 67.6688 142 72.9188 144.417 76.0854C147.667 80.4188 153.167 69.5854 153 67.0021C152.75 64.0021 149.417 63.1688 147.167 64.5021C146.833 64.7521 146.5 64.9188 146.25 65.1688Z" fill="#71E3D1"/>
<path d="M137 74.3345C137 74.3345 136.417 66.0845 133.5 65.8345C131.417 65.6678 131.5 68.8345 131.583 70.1678C131.75 71.9178 132.583 73.5011 133.917 74.6678C135.083 75.6678 137.417 76.8345 137 74.3345Z" fill="#71E3D1"/>
<path d="M139.667 77.418H139.5C139.25 77.418 139 77.668 139 77.918C139 78.168 139.25 78.418 139.5 78.418H139.667C139.917 78.418 140.167 78.168 140.167 77.918C140.167 77.668 139.917 77.418 139.667 77.418Z" fill="#71E3D1"/>
<path d="M141.583 77.248C141.333 77.248 141.083 77.4981 141.083 77.7481C141.083 77.9981 141.333 78.248 141.583 78.248C141.833 78.248 142.083 77.9981 142.083 77.7481C142.083 77.4981 141.833 77.248 141.583 77.248Z" fill="#71E3D1"/>
</svg>
